<svg width="500" height="350" viewBox="0 0 500 350" fill="none" xmlns="http://www.w3.org/2000/svg">
<g clip-path="url(#clip0)">
<path opacity="0.1" d="M175.392 343.221C223.561 343.221 262.61 336.603 262.61 328.44C262.61 320.277 223.561 313.659 175.392 313.659C127.223 313.659 88.1738 320.277 88.1738 328.44C88.1738 336.603 127.223 343.221 175.392 343.221Z" fill="#274786cc"/>
<path opacity="0.1" d="M290.505 49.3594C258.45 48.367 227.922 39.1066 198.77 28.9779C169.618 18.8491 140.743 7.63043 109.457 2.26477C89.3338 -1.1868 66.3184 -1.67862 50.108 7.96274C34.5019 17.2674 29.46 33.2846 26.7509 48.1587C24.7103 59.3508 23.5118 71.1323 29.0985 81.611C32.9814 88.8864 39.8658 95.0008 44.6303 101.97C61.2072 126.216 49.4889 156.114 31.5303 179.788C23.1106 190.892 13.3289 201.499 6.82595 213.307C0.322987 225.115 -2.68333 238.691 3.00738 250.769C8.64361 262.732 22.0804 271.7 36.6366 278.014C66.1995 290.841 101.022 294.51 135.003 296.592C210.201 301.191 285.795 299.202 361.19 297.204C389.094 296.468 417.117 295.719 444.565 291.86C459.81 289.716 475.544 286.313 486.614 278.098C500.66 267.672 504.142 250.02 494.726 236.949C478.937 215.017 435.293 209.572 424.244 186.04C418.172 173.084 424.407 158.658 433.238 146.646C452.177 120.872 483.92 98.2619 485.589 68.8061C486.738 48.5752 471.478 28.3133 447.883 18.7384C423.154 8.70268 388.856 9.96545 370.62 26.5764C351.825 43.6615 318.81 50.2412 290.505 49.3594Z" fill="#274786cc"/>
<path d="M265.032 160.279L249.862 151.129L257.514 140.938L217.446 138.081L203.048 148.041L185.025 139.002L169.994 140.619L169.815 137.075C169.629 133.38 169.214 129.696 168.572 126.042C168.636 124.935 168.681 123.663 168.676 122.28C168.676 116.454 167.795 108.731 163.921 103.583L164.813 96.4136L157.582 88.7706C158.743 86.7012 160.067 84.7083 161.544 82.8067C161.792 82.4877 162.039 82.1776 162.307 81.8763C171.692 81.2693 179.097 74.3661 179.097 65.9255C179.097 65.5356 179.097 65.1457 179.047 64.7602C179.047 64.6051 179.012 64.4456 178.993 64.2905C179.909 64.7336 180.835 65.1767 181.761 65.6198C181.935 65.8413 182.133 66.0628 182.351 66.3243L182.395 66.373L182.673 66.6787L182.762 66.7718C182.861 66.8781 182.965 66.98 183.069 67.0864L183.138 67.1572C183.401 67.4187 183.678 67.6845 183.975 67.9459C184.011 67.9717 184.044 67.9998 184.074 68.0301L184.446 68.3403L184.55 68.4244C184.867 68.677 185.203 68.9207 185.54 69.1511L185.649 69.222L186.075 69.4834L186.214 69.5632C186.377 69.6518 186.546 69.7448 186.709 69.829L186.768 69.86C186.962 69.9531 187.16 70.0417 187.358 70.1259L187.457 70.1613C187.625 70.2263 187.79 70.2883 187.952 70.3474L188.106 70.3961C188.279 70.4493 188.447 70.4981 188.626 70.5424L188.735 70.5689C188.953 70.6177 189.171 70.6576 189.393 70.6886H189.418C189.628 70.7189 189.84 70.7382 190.052 70.7462H190.196C190.386 70.7551 190.576 70.7551 190.765 70.7462H190.889C191.127 70.7339 191.363 70.7088 191.597 70.6708C192.706 70.5405 193.77 70.199 194.718 69.6695C194.959 69.5251 195.173 69.3471 195.352 69.1422C196.342 67.9814 195.253 66.7097 195.253 66.7097C194.866 65.8856 192.36 65.3052 192.36 65.3052C192.36 65.3052 184.436 62.3454 184.436 59.9883C184.436 57.6311 182.455 45.4022 162.005 42.6063C162.005 42.6063 148.702 41.9373 144.962 48.3087L144.883 49.0531C143.784 49.669 142.872 50.9052 141.788 51.2685C141.319 51.3585 140.867 51.5077 140.445 51.7116V51.6274C140.32 51.7254 140.218 51.8443 140.143 51.9774C139.91 52.3921 139.771 52.8438 139.732 53.3066C139.621 53.8721 139.401 54.4161 139.083 54.915C138.995 55.0568 138.896 55.193 138.786 55.3227V55.3227L138.702 55.4423C139.277 55.4824 139.854 55.3988 140.386 55.1986C140.302 55.8052 140.136 56.4004 139.891 56.9709C140.206 56.98 140.517 56.908 140.787 56.7635C141.058 56.619 141.276 56.408 141.416 56.1556V56.1202L141.481 56.0404C141.605 55.8353 141.708 55.6202 141.788 55.398L141.733 55.4511C141.832 55.1631 141.921 54.8707 142.03 54.5871C142.08 54.4274 142.162 54.2772 142.273 54.1441C142.405 54.0248 142.567 53.9351 142.745 53.882C142.923 53.8289 143.112 53.8139 143.298 53.8383L143.095 57.6798H143.184C143.065 57.9593 142.919 58.229 142.748 58.4862C142.045 59.5053 140.767 60.2009 140.297 61.3175C140.094 61.856 140.016 62.426 140.069 62.9923C140.069 63.3246 140.114 63.6614 140.143 63.9937V63.9671C140.213 64.8532 140.232 65.6951 139.698 66.4084C139.331 66.8958 138.742 67.2636 138.539 67.8174C138.482 67.9718 138.457 68.1338 138.464 68.296C138.504 68.7815 138.617 69.26 138.801 69.7182C138.803 69.7095 138.803 69.7004 138.801 69.6917C138.925 70.0287 138.954 70.3879 138.885 70.7373C138.662 71.6235 137.459 72.3634 137.518 73.2097C137.515 73.321 137.533 73.432 137.573 73.5376C137.804 73.9509 138.205 74.2684 138.692 74.4237C139.456 74.8122 140.333 74.9851 141.208 74.92C141.536 74.8669 141.853 74.7698 142.149 74.632C141.802 75.3453 141.446 76.0498 141.084 76.7189C141.03 76.8252 140.97 76.9315 140.911 77.0379C140.911 77.0379 137.85 75.208 136.112 78.9387C135.604 79.714 135.241 80.558 135.037 81.4376C134.95 81.7895 134.827 82.1336 134.671 82.4656C133.899 83.6344 132.744 84.5626 131.362 85.124C127.816 86.5773 113.493 102.559 113.24 106.697C113.116 108.313 112.811 109.913 112.329 111.474C111.201 115.149 110.911 118.99 111.477 122.768C111.654 123.989 111.947 125.194 112.353 126.37C113.874 130.504 114.889 138.218 114.889 138.218L116.534 151.608C116.472 153.456 116.562 155.305 116.801 157.142C115.122 158.857 108.381 166.003 110.957 167.948C112.938 169.482 116.405 169.229 118.351 168.914C116.712 172.543 114.131 178.853 113.79 183.186C113.294 189.597 114.637 198.091 116.761 201.352C118.886 204.613 125.969 212.978 125.969 212.978C125.969 212.978 125.637 224.454 128.168 228.623C130.698 232.793 131.719 241.442 131.719 241.442C131.719 241.442 134.081 248.744 132.897 251.429C131.714 254.114 135.091 256.347 131.545 258.132C127.999 259.918 123.462 300.163 123.462 300.163C123.462 300.163 121.635 326.539 123.462 327.882C123.56 327.945 123.665 328 123.774 328.046V336.907C123.774 336.907 122.507 338.768 127.662 339.145C131.194 339.397 141.203 339.969 147.142 340.301L151.743 340.558C151.743 340.558 162.639 342.499 167.453 340.558C172.267 338.617 180.8 338.662 179.533 333.535C179.364 332.838 179.139 332.152 178.859 331.484C177.467 328.303 175.105 327.939 170.751 327.053C170.499 327.004 170.256 326.96 170.033 326.925C165.447 326.211 163.941 328.121 161.371 325.635C159.137 323.486 152.025 321.08 149.603 320.318C149.662 320.159 149.737 320.004 149.796 319.84C149.11 319.736 148.473 319.457 147.959 319.038L154.521 319.41L158.429 319.627C158.429 319.627 167.69 321.28 171.801 319.627C175.912 317.974 183.143 318.019 182.063 313.663C181.921 313.07 181.731 312.486 181.494 311.918C180.31 309.215 178.299 308.918 174.6 308.169C174.387 308.129 174.189 308.089 173.99 308.058C170.093 307.451 168.815 309.073 166.631 306.964C164.758 305.165 158.85 303.149 156.725 302.462C156.725 301.479 155.239 300.079 154.303 298.674C153.204 297.035 155.234 291.297 155.234 291.297L156.393 267.49C156.835 267.314 157.301 267.195 157.78 267.136C157.78 267.136 163.02 262.661 161.836 257.893C161.595 256.451 161.469 254.996 161.46 253.538C163.183 252.107 165.556 249.993 166.229 248.69C167.329 246.568 166.229 236.284 166.229 236.284V196.961L174.996 197.754L182.95 198.485L185.372 198.707L193.326 199.425L211.607 201.077L228.079 198.286L235.206 197.081L249.862 194.6V162.521L265.032 160.279ZM144.378 53.9801L143.358 53.8827C143.694 53.8959 144.051 53.9535 144.378 53.9801Z" fill="url(#paint0_linear)"/>
<path d="M229.476 181.108C224.523 187.448 206.718 184.09 206.718 184.09L192.919 172.539L191.062 170.975L194.177 165.055C194.177 165.055 195.168 165.299 196.867 165.733C205.787 168.05 233.656 175.778 229.476 181.108Z" fill="#EFB7B9"/>
<path opacity="0.1" d="M196.857 165.733C196.248 167.629 194.578 170.47 192.919 172.539L191.062 170.975L194.177 165.055C194.177 165.055 195.178 165.299 196.857 165.733Z" fill="black"/>
<path d="M149.533 98.979C149.533 98.979 136.815 104.026 137.439 116.419C137.888 124.403 138.86 132.356 140.351 140.238C140.351 140.238 137.751 158.888 148.577 163.695C159.404 168.502 169.424 172.455 169.424 172.455C169.424 172.455 186.362 174.085 188.467 174.759C190.572 175.432 197.149 165.135 195.936 163.531C194.722 161.927 179.176 158.564 177.194 155.888C175.213 153.212 170.632 151.559 170.632 151.559C170.632 151.559 165.902 148.998 165.58 146.685C165.258 144.372 166.506 142.649 166.823 141.634C167.14 140.619 167.943 130.823 167.943 130.823C167.943 130.823 173.282 95.9528 149.533 98.979Z" fill="#DCE6F2"/>
<path opacity="0.1" d="M157.929 139.729C157.929 139.729 140.48 142.343 142.169 147.806C142.169 147.806 148.503 141.909 157.929 139.729Z" fill="black"/>
<path opacity="0.1" d="M158.062 141.94C158.062 141.94 148.469 148.945 150.346 149.304C152.223 149.663 158.062 141.94 158.062 141.94Z" fill="black"/>
<path opacity="0.1" d="M162.673 144.381C162.673 144.381 160.102 149.091 161.682 148.772C163.262 148.453 162.673 144.381 162.673 144.381Z" fill="black"/>
<path opacity="0.1" d="M197.501 166.234L196.441 165.963C196.743 165.077 196.827 164.359 196.579 164.027C195.366 162.423 179.829 159.065 177.853 156.384C175.877 153.703 171.291 152.055 171.291 152.055C171.291 152.055 166.561 149.494 166.239 147.181C165.917 144.869 167.165 143.145 167.482 142.13C167.799 141.116 168.601 131.315 168.601 131.315C168.601 131.315 173.926 96.4491 150.177 99.4753C150.177 99.4753 137.458 104.526 138.078 116.919C138.527 124.903 139.501 132.857 140.995 140.739C140.995 140.739 138.395 159.388 149.221 164.196C160.048 169.003 170.067 172.955 170.067 172.955C170.067 172.955 187.001 174.581 189.111 175.259C189.908 175.516 191.349 174.191 192.761 172.37L193.563 173.039L207.362 184.586C207.362 184.586 225.167 187.949 230.119 181.608C234.305 176.274 206.44 168.547 197.501 166.234Z" fill="black"/>
<path d="M142.213 52.4648C141.728 52.5496 141.264 52.71 140.841 52.9389C140.346 53.3066 140.346 53.9358 140.222 54.4852C140.077 55.2495 139.738 55.9739 139.231 56.6031C139.795 56.6401 140.36 56.5566 140.881 56.3594C140.796 56.9659 140.63 57.5609 140.385 58.1317C140.694 58.1388 140.998 58.066 141.262 57.9222C141.525 57.7784 141.737 57.5696 141.871 57.3209C142.133 56.8216 142.341 56.3008 142.49 55.7657C142.537 55.6057 142.618 55.4552 142.728 55.3226C143.184 54.8397 144.031 55.0568 144.734 55.1188C145.319 55.163 145.907 55.0663 146.437 54.8388C146.966 54.6113 147.418 54.2613 147.745 53.825C148.493 52.8104 148.538 50.214 146.755 49.9392C144.892 49.6645 143.734 51.9597 142.213 52.4648Z" fill="#965D7B"/>
<g opacity="0.1">
<path opacity="0.1" d="M140.792 53.4839C140.837 53.2668 140.867 53.0408 140.921 52.8237C140.451 53.1914 140.426 53.8162 140.302 54.37C140.24 54.6896 140.142 55.0028 140.01 55.3049C140.4 54.7489 140.665 54.1304 140.792 53.4839V53.4839Z" fill="black"/>
<path opacity="0.1" d="M140.95 57.1437C141.197 56.5736 141.363 55.9782 141.446 55.3714C140.95 55.5581 140.413 55.6414 139.876 55.615C139.719 55.9267 139.529 56.2235 139.306 56.5012C139.868 56.5401 140.432 56.458 140.95 56.2619C140.868 56.8688 140.702 57.4642 140.455 58.0343C140.764 58.0407 141.068 57.9677 141.331 57.824C141.595 57.6802 141.806 57.4718 141.941 57.2234C142.064 57.022 142.164 56.8097 142.238 56.5898C142.093 56.7715 141.899 56.9175 141.674 57.0143C141.449 57.1111 141.2 57.1556 140.95 57.1437V57.1437Z" fill="black"/>
<path opacity="0.1" d="M145.299 54.1307C144.596 54.0687 143.744 53.8516 143.288 54.3346C143.18 54.4682 143.099 54.6183 143.051 54.7776C143.006 54.8928 142.966 55.0125 142.932 55.1321C143.402 54.7998 144.165 54.977 144.804 55.0346C145.389 55.0774 145.976 54.9801 146.505 54.7527C147.035 54.5253 147.487 54.1761 147.815 53.7408C147.965 53.5257 148.077 53.291 148.147 53.0452C147.808 53.4208 147.371 53.7161 146.874 53.9054C146.378 54.0947 145.837 54.172 145.299 54.1307Z" fill="black"/>
</g>
<path d="M157.121 89.0585L164.674 97.1846L163.688 105.386L154.561 92.6032L157.121 89.0585Z" fill="#DCE6F2"/>
<path opacity="0.1" d="M164.669 97.1846L163.743 104.899L163.683 105.386L155.447 93.8482L154.561 92.6032L154.818 92.2443L157.116 89.0585L157.626 89.608L164.669 97.1846Z" fill="black"/>
<path d="M168.591 78.0569C166.036 78.7127 163.594 80.9635 161.469 83.6973C160.033 85.5835 158.749 87.5587 157.626 89.6079C156.928 90.8574 156.314 92.0581 155.803 93.1038L155.447 93.8482C154.585 95.6692 154.105 96.8877 154.105 96.8877C154.105 96.8877 134.541 83.7283 137.637 82.8421C138.677 82.5453 140.044 80.5514 141.396 78.0392L141.564 77.7202C142.421 76.1074 143.263 74.3085 144.011 72.6159C145.541 69.1378 146.676 66.116 146.676 66.116C146.676 66.116 176.392 76.0631 168.591 78.0569Z" fill="#EFB7B9"/>
<path d="M180.295 65.3761C180.295 65.3761 184.812 72.6869 190.879 71.6899C196.946 70.693 194.45 67.7643 194.45 67.7643L180.295 65.3761Z" fill="#444053"/>
<path d="M171.543 318.44C167.542 320.075 158.493 318.44 158.493 318.44L154.679 318.227C149.727 317.943 141.436 317.465 138.504 317.252C134.224 316.938 135.274 315.369 135.274 315.369V305.892L156.036 301.186C156.036 301.186 164.243 303.698 166.492 305.892C168.626 307.983 169.874 306.375 173.683 306.977C173.871 307.008 174.069 307.044 174.277 307.088C177.893 307.828 179.854 308.12 181.013 310.801C181.246 311.364 181.433 311.942 181.573 312.529C182.643 316.845 175.54 316.814 171.543 318.44Z" fill="#A36468"/>
<path opacity="0.1" d="M181.013 310.801C180.269 311.217 179.487 311.576 178.675 311.873C175.951 312.985 173.361 314.341 170.607 315.391C167.854 316.441 164.887 317.19 161.905 316.991C160.345 316.889 158.75 316.548 157.26 316.946C156.338 317.265 155.469 317.696 154.679 318.227C149.727 317.943 141.436 317.465 138.504 317.252C134.224 316.938 135.274 315.369 135.274 315.369V314.261C135.428 314.261 135.601 314.222 135.799 314.208C136.824 314.194 137.845 314.33 138.821 314.611C140.97 315.134 143.11 315.648 145.259 316.162C145.436 315.565 145.747 315.007 146.172 314.521C146.598 314.035 147.13 313.632 147.736 313.335C148.962 312.753 150.339 312.47 151.727 312.516C155.061 312.556 158.216 313.969 161.544 314.111C162.474 314.187 163.411 314.047 164.263 313.703C164.719 313.499 165.12 313.202 165.565 312.976C166.279 312.668 167.033 312.44 167.809 312.299C169.992 311.813 172.135 311.194 174.223 310.446C174.817 310.238 175.511 309.862 175.431 309.294C175.327 308.541 174.005 308.453 173.658 307.761C173.597 307.637 173.569 307.501 173.576 307.365C173.583 307.229 173.624 307.096 173.698 306.977C173.886 307.008 174.084 307.044 174.292 307.088C177.893 307.828 179.854 308.12 181.013 310.801Z" fill="black"/>
<path d="M167.314 339.176C162.609 341.099 151.96 339.176 151.96 339.176L147.478 338.941C141.673 338.608 131.897 338.055 128.445 337.793C123.408 337.421 124.646 335.578 124.646 335.578V324.408L149.078 318.869C149.078 318.869 158.736 321.825 161.38 324.408C163.891 326.867 165.343 324.975 169.845 325.684C170.067 325.719 170.3 325.764 170.543 325.812C174.797 326.699 177.105 327.031 178.467 330.186C178.743 330.848 178.963 331.528 179.126 332.219C180.354 337.297 172.019 337.257 167.314 339.176Z" fill="#A36468"/>
<path opacity="0.1" d="M178.457 330.186C177.582 330.675 176.663 331.097 175.709 331.448C172.504 332.755 169.453 334.35 166.214 335.587C162.975 336.823 159.483 337.7 155.972 337.47C154.139 337.35 152.262 336.938 150.524 337.417C149.435 337.796 148.41 338.309 147.478 338.941C141.673 338.608 131.897 338.055 128.445 337.793C123.408 337.421 124.646 335.578 124.646 335.578V334.275C124.851 334.245 125.057 334.225 125.265 334.213C126.471 334.193 127.673 334.354 128.821 334.687L136.394 336.513C136.605 335.809 136.974 335.15 137.479 334.578C137.984 334.006 138.614 333.532 139.331 333.185C140.774 332.497 142.396 332.163 144.031 332.219C147.953 332.268 151.663 333.93 155.581 334.098C156.672 334.187 157.77 334.024 158.77 333.624C159.31 333.38 159.761 333.03 160.306 332.769C161.143 332.402 162.031 332.134 162.945 331.971C165.5 331.395 168.008 330.666 170.454 329.791C171.152 329.543 171.969 329.1 171.875 328.435C171.751 327.549 170.196 327.443 169.785 326.628C169.716 326.481 169.684 326.321 169.693 326.162C169.701 326.002 169.75 325.847 169.835 325.706C170.058 325.742 170.29 325.786 170.533 325.835C174.787 326.685 177.095 327.031 178.457 330.186Z" fill="black"/>
<path d="M156.665 262.528L155.343 290.366C155.343 290.366 153.362 296.051 154.436 297.677C155.511 299.303 157.324 300.925 156.665 301.886C156.006 302.848 148.082 313.242 145.522 309.255C142.961 305.267 140.435 287.987 140.435 287.987L142.798 266.644L156.665 262.528Z" fill="#444053"/>
<path d="M162.401 193.168L166.076 197.564V235.792C166.076 235.792 167.151 245.983 166.076 248.088C165.001 250.192 159.553 254.402 159.553 254.402L154.972 233.356L155.962 211.091L162.401 193.168Z" fill="#444053"/>
<path opacity="0.1" d="M156.665 262.528L155.343 290.366C155.343 290.366 153.362 296.051 154.436 297.677C155.511 299.303 157.324 300.925 156.665 301.886C156.006 302.848 148.082 313.242 145.522 309.255C142.961 305.267 140.435 287.987 140.435 287.987L142.798 266.644L156.665 262.528Z" fill="black"/>
<path opacity="0.1" d="M162.401 193.168L166.076 197.564V235.792C166.076 235.792 167.151 245.983 166.076 248.088C165.001 250.192 159.553 254.402 159.553 254.402L154.972 233.356L155.962 211.091L162.401 193.168Z" fill="black"/>
<path d="M166.076 176.863V197.542L161.95 213.639C161.95 213.639 160.628 252.483 161.782 257.206C162.936 261.93 157.819 266.365 157.819 266.365C157.819 266.365 154.848 266.662 154.848 268.726C154.848 270.791 149.895 276.702 149.895 276.702L150.058 288.222C150.058 288.222 152.208 309.786 148.904 313.92C145.601 318.054 150.058 318.648 150.058 318.648C145.933 330.757 126.122 327.953 124.334 326.623C122.546 325.294 124.334 299.152 124.334 299.152C124.334 299.152 128.762 259.276 132.229 257.503C135.695 255.731 132.397 253.516 133.551 250.857C134.705 248.199 132.397 240.963 132.397 240.963C132.397 240.963 131.406 232.394 128.93 228.26C126.454 224.126 126.78 212.752 126.78 212.752C126.78 212.752 119.847 204.48 117.786 201.232C115.726 197.985 114.399 189.566 114.894 183.212C115.231 178.919 117.752 172.667 119.351 169.069C120.119 167.346 120.674 166.229 120.674 166.229L121.144 166.34L148.196 172.676L166.076 176.863Z" fill="#444053"/>
<path opacity="0.1" d="M168.592 78.0569C166.036 78.7127 163.594 80.9635 161.47 83.6973H160.915C157.801 83.6993 154.741 82.9657 152.045 81.5708C149.349 80.1758 147.113 78.1689 145.562 75.7529C144.913 74.7518 144.392 73.6893 144.006 72.5849C145.537 69.1068 146.671 66.085 146.671 66.085C146.671 66.085 176.392 76.0631 168.592 78.0569Z" fill="black"/>
<path d="M178.621 66.98C178.626 69.4043 178.008 71.7972 176.816 73.9743C175.623 76.1515 173.888 78.0547 171.744 79.5375C169.6 81.0203 167.105 82.043 164.449 82.5269C161.794 83.0108 159.05 82.943 156.428 82.3286C153.807 81.7143 151.378 80.5698 149.329 78.9833C147.279 77.3969 145.665 75.4108 144.609 73.1781C143.553 70.9454 143.084 68.5257 143.238 66.1052C143.392 63.6848 144.165 61.3283 145.497 59.2173C146.034 58.3595 146.661 57.5494 147.369 56.7981C148.537 55.5533 149.91 54.4746 151.44 53.599C154.026 52.1294 156.993 51.2849 160.052 51.1479C163.111 51.0108 166.157 51.5861 168.893 52.8174C171.63 54.0487 173.962 55.8939 175.663 58.1728C177.363 60.4517 178.374 63.0862 178.596 65.8191C178.606 66.209 178.621 66.5945 178.621 66.98Z" fill="#EFB7B9"/>
<path opacity="0.1" d="M163.743 104.899L163.683 105.386L155.447 93.8659C154.585 95.687 154.105 96.9054 154.105 96.9054C154.105 96.9054 134.541 83.7283 137.637 82.8421C138.677 82.5453 140.044 80.5514 141.396 78.0392L141.564 77.7202C143.001 81.5484 151.346 89.2003 154.818 92.2664C155.219 92.6209 155.551 92.9133 155.808 93.126L156.338 93.569L156.616 93.8172C157.879 94.9825 163.208 100.122 163.743 104.899Z" fill="black"/>
<path d="M169.899 143.987L168.998 169.938L168.839 174.559C168.839 174.559 158.161 173.673 148.196 172.698C140.173 171.914 132.61 171.068 131.446 170.571C129.96 169.947 126.775 169.464 124.264 169.158C122.323 168.923 120.798 168.799 120.798 168.799C120.798 168.799 120.228 168.95 119.351 169.092C117.44 169.402 114.082 169.654 112.125 168.135C109.624 166.189 116.196 159.122 117.836 157.425L118.197 157.058L117.578 151.94L115.969 138.67C115.969 138.67 114.978 131.027 113.492 126.928C113.095 125.763 112.808 124.57 112.635 123.362C112.083 119.618 112.366 115.814 113.467 112.169C113.938 110.621 114.237 109.034 114.359 107.433C114.607 103.334 128.598 87.4945 132.065 86.0545C133.625 85.4039 134.88 84.2843 135.611 82.8909C135.853 82.4528 136.034 81.9901 136.151 81.5129C137.637 75.7529 141.396 78.0392 141.396 78.0392C142.302 82.5453 156.333 94.4729 156.333 94.4729L156.611 94.7211C158.003 95.9971 164.203 101.988 163.763 107.101C163.675 109.004 163.992 110.904 164.699 112.701C167.553 120.741 169.193 129.085 169.577 137.513L169.899 143.987Z" fill="#DCE6F2"/>
<path opacity="0.1" d="M150.019 113.171C150.019 113.171 146.552 120.703 143.952 121.922C141.352 123.14 151.257 124.491 150.019 113.171Z" fill="black"/>
<path opacity="0.1" d="M152.619 127.238C152.619 127.238 144.695 128.125 144.695 129.454C144.695 130.783 152.619 127.238 152.619 127.238Z" fill="black"/>
<path opacity="0.1" d="M160.915 135.879C160.915 135.879 149.4 157.811 146.18 158.475C142.961 159.14 160.915 135.879 160.915 135.879Z" fill="black"/>
<path opacity="0.1" d="M156.116 95.5851L146.592 99.2892L135.096 83.7549C135.338 83.3168 135.519 82.8541 135.636 82.3769C137.122 76.6169 140.881 78.9032 140.881 78.9032C141.787 83.4093 155.819 95.3369 155.819 95.3369L156.116 95.5851Z" fill="black"/>
<path d="M156.611 94.6989L147.087 98.403L135.591 82.8687C135.833 82.4306 136.014 81.9679 136.131 81.4908C137.617 75.7308 141.376 78.017 141.376 78.017C142.282 82.5231 156.314 94.4508 156.314 94.4508L156.611 94.6989Z" fill="#DCE6F2"/>
<path opacity="0.1" d="M168.839 174.559C168.839 174.559 158.161 173.673 148.196 172.698L166.076 176.885V181.759C165.293 182.393 164.615 182.721 164.174 182.552C162.114 181.777 145.299 179.34 145.299 179.34C145.299 179.34 135.532 174.909 124.993 169.592C124.737 169.465 124.489 169.326 124.25 169.176C123.021 168.429 121.962 167.481 121.13 166.38C119.183 163.859 118.232 160.62 117.821 157.443C117.59 155.622 117.504 153.789 117.564 151.958C117.615 149.881 117.826 147.81 118.198 145.759C117.178 137.817 116.682 129.828 116.712 121.833C116.836 109.427 129.836 104.996 129.836 104.996C153.733 103.113 146.324 137.673 146.324 137.673C146.324 137.673 144.942 147.421 144.566 148.418C144.19 149.415 142.837 151.076 143.021 153.402C143.204 155.728 147.77 158.511 147.77 158.511C147.77 158.511 152.228 160.381 154.065 163.15C155.403 165.193 164.09 167.962 168.998 169.938L168.839 174.559Z" fill="black"/>
<path opacity="0.1" d="M176.843 57.1437C176.852 57.8735 176.683 58.5963 176.348 59.2616C176.094 59.8045 175.799 60.3315 175.466 60.839C174.945 61.7724 174.205 62.5945 173.297 63.2493C172.153 63.9804 170.707 64.1842 169.335 64.4811C167.963 64.7779 166.536 65.252 165.754 66.2977C165.33 66.9699 165.046 67.7056 164.917 68.4688C164.786 69.2313 164.445 69.9528 163.926 70.5689C163.656 70.8698 163.282 71.0817 162.862 71.1715C162.443 71.2614 162.002 71.224 161.608 71.0652C161.194 70.8154 160.88 70.4536 160.712 70.0328C160.147 68.8941 160.004 67.6313 159.776 66.404C159.548 65.1767 159.226 63.9139 158.384 62.9259C157.542 61.9378 156.051 61.2865 154.729 61.6719C154.286 61.8244 153.883 62.0552 153.542 62.3506C153.202 62.6461 152.932 63 152.748 63.3911C152.382 64.1741 152.131 64.9962 152 65.8369C151.386 68.8439 150.661 71.8332 149.826 74.8048C149.8 74.9266 149.744 75.0417 149.662 75.1415C149.531 75.2589 149.353 75.3257 149.167 75.3276C148.058 75.4605 146.993 74.7649 145.873 74.8402C145.758 74.8471 145.644 74.8634 145.532 74.8889C143.722 72.0752 142.923 68.8318 143.243 65.5982C143.563 62.3646 144.986 59.2971 147.32 56.8114L147.409 56.7892C148.153 56.5528 148.83 56.1714 149.39 55.6727C150.105 55.0326 150.767 54.347 151.371 53.6212L151.767 53.1781C152.906 51.9512 154.202 50.8492 155.63 49.8949C156.02 49.6093 156.467 49.3927 156.948 49.2569C157.359 49.1852 157.78 49.1733 158.196 49.2215C159.906 49.4052 161.631 49.4629 163.352 49.3943C164.551 49.2256 165.76 49.1162 166.972 49.0664C170.107 49.1461 172.782 51.1267 174.763 53.2978C175.828 54.4099 176.779 55.6904 176.843 57.1437Z" fill="black"/>
<path d="M143.184 59.6382C142.496 60.6484 141.253 61.3352 140.787 62.4429C140.104 64.0512 141.258 66.054 140.198 67.4895C139.846 67.9725 139.267 68.3314 139.069 68.8852C138.732 69.8201 139.653 70.817 139.415 71.7785C139.178 72.74 137.761 73.5508 138.137 74.4901C138.36 74.8998 138.75 75.2171 139.227 75.3763C139.978 75.7614 140.841 75.933 141.703 75.8681C143.056 75.6687 144.061 74.4813 145.433 74.3927C146.547 74.3218 147.612 75.013 148.721 74.8845C148.907 74.8787 149.084 74.8107 149.217 74.694C149.301 74.5952 149.357 74.4797 149.38 74.3572C150.212 71.3886 150.939 68.3993 151.559 65.3893C151.686 64.5484 151.936 63.7261 152.302 62.9435C152.488 62.5532 152.758 62.2 153.099 61.9048C153.439 61.6095 153.842 61.3782 154.283 61.2244C155.606 60.8434 157.092 61.4902 157.939 62.4783C158.785 63.4664 159.107 64.7291 159.335 65.9565C159.563 67.1838 159.707 68.4466 160.266 69.5853C160.436 70.0076 160.752 70.3707 161.168 70.6221C161.911 71.0076 162.911 70.7018 163.481 70.1258C164.002 69.5095 164.343 68.7858 164.471 68.0212C164.6 67.2594 164.884 66.5252 165.308 65.8546C166.091 64.8089 167.522 64.3348 168.889 64.0379C170.256 63.7411 171.697 63.5328 172.851 62.8018C173.758 62.1477 174.498 61.3273 175.021 60.3958C175.754 59.2527 176.437 58.0121 176.378 56.6962C176.313 55.2606 175.362 53.9801 174.347 52.8635C172.366 50.6925 169.686 48.7119 166.551 48.6366C165.338 48.682 164.129 48.7914 162.931 48.9645C161.21 49.0337 159.485 48.9744 157.775 48.7872C157.359 48.7427 156.938 48.7562 156.527 48.8271C156.046 48.9585 155.6 49.1756 155.215 49.4651C153.785 50.4178 152.487 51.5183 151.346 52.7439C150.611 53.6161 149.814 54.4449 148.959 55.2251C148.399 55.7247 147.723 56.1074 146.978 56.3461C146.483 56.4702 145.988 56.3816 145.517 56.5189C144.056 56.931 143.863 58.6368 143.184 59.6382Z" fill="#965D7B"/>
<path opacity="0.1" d="M190.879 71.6855C186.917 72.3368 183.633 69.4701 181.815 67.3788C181.257 66.7437 180.749 66.0745 180.295 65.3761L193.895 67.6712L194.445 67.7643C194.445 67.7643 196.946 70.693 190.879 71.6855Z" fill="black"/>
<g opacity="0.1">
<path opacity="0.1" d="M139.415 70.5113C139.471 69.9319 139.372 69.3489 139.128 68.8099C139.128 68.8542 139.083 68.8985 139.069 68.9428C138.856 69.5366 139.143 70.1524 139.326 70.7683C139.365 70.6856 139.395 70.5995 139.415 70.5113V70.5113Z" fill="black"/>
<path opacity="0.1" d="M140.594 63.2581C140.543 63.8708 140.556 64.4864 140.633 65.0969C140.684 64.4842 140.671 63.8686 140.594 63.2581Z" fill="black"/>
<path opacity="0.1" d="M174.991 59.1153C174.469 60.0488 173.73 60.8709 172.821 61.5257C171.677 62.2568 170.236 62.4606 168.859 62.7574C167.482 63.0543 166.061 63.5284 165.278 64.5741C164.855 65.2466 164.571 65.9821 164.441 66.7451C164.312 67.5096 163.972 68.233 163.451 68.8498C162.881 69.4258 161.881 69.7359 161.138 69.346C160.722 69.0946 160.406 68.7315 160.236 68.3092C159.677 67.1705 159.528 65.9122 159.305 64.6804C159.082 63.4486 158.751 62.1903 157.909 61.2022C157.067 60.2142 155.576 59.5629 154.253 59.9483C153.811 60.1014 153.408 60.3325 153.068 60.6279C152.727 60.9232 152.457 61.2767 152.272 61.6675C151.906 62.45 151.656 63.2723 151.529 64.1133C150.912 67.1232 150.186 70.1125 149.35 73.0812C149.327 73.2036 149.271 73.3191 149.187 73.4179C149.054 73.5346 148.877 73.6026 148.691 73.6084C147.582 73.7369 146.517 73.0457 145.403 73.1166C144.031 73.2052 143.026 74.3927 141.673 74.5876C140.811 74.6568 139.946 74.485 139.197 74.0958C138.853 73.9633 138.544 73.767 138.291 73.5198C138.175 73.6683 138.098 73.8383 138.066 74.0171C138.035 74.196 138.049 74.3789 138.107 74.5522C138.326 74.9647 138.717 75.2832 139.197 75.4383C139.946 75.8275 140.811 75.9993 141.673 75.9301C143.026 75.7352 144.031 74.5477 145.403 74.4591C146.517 74.3882 147.582 75.0794 148.691 74.9509C148.877 74.9452 149.054 74.8772 149.187 74.7604C149.271 74.6617 149.327 74.5461 149.35 74.4237C150.182 71.4698 150.909 68.4805 151.529 65.4558C151.656 64.6149 151.906 63.7925 152.272 63.01C152.457 62.6193 152.727 62.2657 153.068 61.9704C153.408 61.6751 153.811 61.444 154.253 61.2909C155.576 60.9054 157.062 61.5567 157.909 62.5448C158.755 63.5328 159.077 64.7956 159.305 66.0229C159.533 67.2503 159.677 68.513 160.236 69.6517C160.406 70.0741 160.722 70.4371 161.138 70.6885C161.881 71.074 162.881 70.7683 163.451 70.1923C163.972 69.5755 164.312 68.8521 164.441 68.0877C164.571 67.3247 164.855 66.5891 165.278 65.9166C166.061 64.8709 167.492 64.4013 168.859 64.1C170.226 63.7987 171.667 63.5993 172.821 62.8682C173.73 62.2134 174.469 61.3913 174.991 60.4579C175.724 59.3192 176.407 58.0785 176.348 56.7626C176.338 56.5934 176.318 56.4248 176.288 56.2575C176.049 57.2716 175.61 58.2394 174.991 59.1153V59.1153Z" fill="black"/>
</g>
<path opacity="0.1" d="M176.367 59.2483C177.637 61.2685 178.39 63.5159 178.571 65.828C174.158 63.6126 170.008 61.1801 167.913 60.3339C164.263 58.8584 150.613 59.0799 145.482 59.2173C146.019 58.3595 146.646 57.5495 147.354 56.7981C148.527 55.5523 149.904 54.4735 151.44 53.5991C153.474 52.4444 155.75 51.6728 158.128 51.3316C160.506 50.9904 162.938 51.0867 165.273 51.6146C167.609 52.1426 169.799 53.091 171.711 54.402C173.623 55.713 175.216 57.359 176.392 59.2395L176.367 59.2483Z" fill="black"/>
<path opacity="0.1" d="M192.117 69.8068C189.735 70.4626 185.847 69.1954 181.815 67.3788C181.257 66.7436 180.749 66.0745 180.295 65.3761L193.895 67.6712C194.797 68.2206 195.024 69.0049 192.117 69.8068Z" fill="black"/>
<path d="M161.97 43.8868C161.97 43.8868 148.969 43.2222 145.314 49.536L144.724 55.1321L143.734 55.0346L143.536 58.8407C143.536 58.8407 163.406 58.0653 167.928 59.8908C172.45 61.7162 186.501 70.9145 192.132 69.3638C197.763 67.813 191.637 66.373 191.637 66.373C191.637 66.373 183.886 63.4354 183.886 61.1314C183.886 58.8274 181.964 46.656 161.97 43.8868Z" fill="#444053"/>
<path opacity="0.1" d="M136.894 251.336C136.894 251.336 145.19 258.536 148.781 257.982C148.781 257.982 138.628 257.206 136.894 251.336Z" fill="black"/>
<path opacity="0.1" d="M135.161 254.672C135.161 254.672 135.904 258.376 137.885 258.013C139.866 257.649 135.161 254.672 135.161 254.672Z" fill="black"/>
<path opacity="0.1" d="M148.162 316.579C148.162 316.579 136.384 324.776 138.37 324.997C140.356 325.219 148.162 316.579 148.162 316.579Z" fill="black"/>
<path d="M163.916 153.894L202.052 148.342V180.643L165.818 178.946L163.916 153.894Z" fill="#274786cc"/>
<path opacity="0.05" d="M163.916 153.894L202.052 148.342V180.643L165.818 178.946L163.916 153.894Z" fill="black"/>
<path d="M202.052 148.342L247.786 151.404L245.255 179.513L202.052 180.643V148.342Z" fill="#274786cc"/>
<path opacity="0.1" d="M202.052 148.342L247.786 151.404L245.255 179.513L202.052 180.643V148.342Z" fill="black"/>
<path d="M216.113 138.484L202.052 148.342L247.786 151.404L255.26 141.315L216.113 138.484Z" fill="#274786cc"/>
<path d="M150.108 143.127L184.44 139.388L202.052 148.342L163.916 153.894L150.108 143.127Z" fill="#274786cc"/>
<path d="M210.413 156.73V200.891L192.548 199.252L184.777 198.543L182.41 198.321L174.644 197.608L163.916 196.624V153.894L202.048 156.216L210.413 156.73Z" fill="#274786cc"/>
<path d="M247.786 151.404V194.471L233.468 196.93L226.504 198.126L210.413 200.891V156.73L247.786 151.404Z" fill="#274786cc"/>
<path opacity="0.05" d="M247.786 151.404V194.471L233.468 196.93L226.504 198.126L210.413 200.891V156.73L247.786 151.404Z" fill="black"/>
<path d="M150.108 163.19L163.916 153.894L210.413 156.73L203.568 167.045L150.108 163.19Z" fill="#274786cc"/>
<path opacity="0.1" d="M150.108 163.19L163.916 153.894L210.413 156.73L203.568 167.045L150.108 163.19Z" fill="white"/>
<path d="M247.786 151.404L210.413 156.73L222.577 166.477L262.61 160.469L247.786 151.404Z" fill="#274786cc"/>
<path opacity="0.1" d="M247.786 151.404L210.413 156.73L222.577 166.477L262.61 160.469L247.786 151.404Z" fill="white"/>
<path opacity="0.1" d="M233.467 196.93L226.504 198.126V188.924L233.027 187.453L233.467 196.93Z" fill="white"/>
<path opacity="0.1" d="M192.548 193.164V199.252L184.777 198.543V193.164H192.548Z" fill="white"/>
<path opacity="0.1" d="M182.409 195.082V198.321L174.644 197.608V195.082H182.409Z" fill="white"/>
<path opacity="0.1" d="M205.738 189.934C200.413 196.026 182.831 191.817 182.831 191.817L169.766 179.624L167.993 177.971L171.46 172.211C171.46 172.211 172.45 172.503 174.104 173.017C182.861 175.755 210.22 184.808 205.738 189.934Z" fill="black"/>
<path d="M205.242 189.048C199.918 195.14 182.336 190.931 182.336 190.931L169.27 178.737L167.497 177.085L170.964 171.325C170.964 171.325 171.955 171.617 173.609 172.131C182.365 174.869 209.724 183.921 205.242 189.048Z" fill="#EFB7B9"/>
<path opacity="0.1" d="M173.589 172.131C172.866 173.992 171.029 176.748 169.251 178.737L167.478 177.085L170.944 171.325C170.944 171.325 171.94 171.617 173.589 172.131Z" fill="black"/>
<path d="M130.332 103.224C130.332 103.224 117.331 107.654 117.207 120.061C117.177 128.055 117.673 136.044 118.693 143.987C118.693 143.987 114.978 162.485 125.503 167.802C136.027 173.119 145.809 177.55 145.809 177.55C145.809 177.55 162.624 179.987 164.689 180.762C166.754 181.538 173.931 171.568 172.816 169.907C171.702 168.245 156.393 164.147 154.575 161.378C152.758 158.608 148.28 156.743 148.28 156.743C148.28 156.743 143.714 153.956 143.531 151.63C143.347 149.304 144.695 147.642 145.076 146.645C145.457 145.648 146.839 135.901 146.839 135.901C146.839 135.901 154.229 101.318 130.332 103.224Z" fill="#DCE6F2"/>
<path opacity="0.1" d="M136.275 144.297C136.275 144.297 118.693 146.069 120.055 151.608C120.055 151.608 126.736 146.021 136.275 144.297Z" fill="black"/>
<path opacity="0.1" d="M136.275 146.512C136.275 146.512 126.295 153.048 128.127 153.491C129.96 153.934 136.275 146.512 136.275 146.512Z" fill="black"/>
<path opacity="0.1" d="M140.732 149.171C140.732 149.171 137.885 153.752 139.494 153.513C141.104 153.274 140.732 149.171 140.732 149.171Z" fill="black"/>
<path d="M323.796 49.7974C323.796 49.7974 304.976 48.7828 307.175 60.5952C307.175 60.5952 306.734 62.6821 308.849 63.6303C308.849 63.6303 308.883 62.7442 310.78 63.0499C311.456 63.1516 312.143 63.1813 312.826 63.1385C313.752 63.0833 314.632 62.758 315.332 62.2125V62.2125C315.332 62.2125 320.626 60.2585 322.687 52.5135C322.687 52.5135 324.212 50.821 324.173 50.3867L320.993 51.6052C320.993 51.6052 322.078 53.6566 321.221 55.3625C321.221 55.3625 321.122 51.6805 320.508 51.7647C320.384 51.7647 318.858 52.4781 318.858 52.4781C318.858 52.4781 320.726 56.0493 319.314 58.6501C319.314 58.6501 319.849 54.2459 318.274 52.735L316.035 53.9048C316.035 53.9048 318.219 57.5956 316.739 60.6085C316.739 60.6085 317.12 55.9872 315.565 54.1883L313.534 55.6018C313.534 55.6018 315.59 59.2439 314.336 61.7428C314.336 61.7428 314.173 56.3639 313.093 55.9562C313.093 55.9562 311.32 57.3563 311.053 57.9323C311.053 57.9323 312.454 60.5908 311.583 61.9688C311.583 61.9688 311.048 58.3843 310.592 58.3666C310.592 58.3666 308.824 60.7415 308.641 62.3543C308.726 60.8507 309.251 59.3934 310.161 58.1273C309.142 58.2998 308.202 58.7357 307.457 59.3812C307.457 59.3812 307.73 57.7019 310.597 57.5557C310.597 57.5557 312.083 55.7524 312.449 55.6416C312.449 55.6416 309.597 55.429 307.868 56.1157C307.868 56.1157 309.389 54.5339 312.974 55.2296L314.956 53.7674C314.956 53.7674 311.201 53.3243 309.607 53.8162C309.607 53.8162 311.439 52.416 315.495 53.4351L317.675 52.2698C317.675 52.2698 314.475 51.6495 312.568 51.8755C312.568 51.8755 314.579 50.9051 318.314 51.9552L319.874 51.3305C319.874 51.3305 317.526 50.9184 316.843 50.852C316.159 50.7855 316.119 50.6171 316.119 50.6171C317.605 50.396 319.129 50.5494 320.522 51.0602C320.522 51.0602 323.866 49.9835 323.796 49.7974Z" fill="#274786cc"/>
<path opacity="0.1" d="M380.981 108.877C380.981 108.877 362.16 107.863 364.359 119.675C364.359 119.675 363.919 121.762 366.033 122.71C366.033 122.71 366.068 121.824 367.97 122.13C368.645 122.232 369.332 122.261 370.015 122.218C370.931 122.159 371.8 121.836 372.492 121.297V121.297C372.492 121.297 377.791 119.338 379.852 111.593C379.852 111.593 381.372 109.905 381.313 109.471L378.133 110.685C378.133 110.685 379.218 112.737 378.366 114.442C378.366 114.442 378.262 110.76 377.653 110.845C377.529 110.845 375.998 111.558 375.998 111.558C375.998 111.558 377.87 115.134 376.459 117.73C376.459 117.73 376.994 113.326 375.414 111.815L373.2 112.971C373.2 112.971 375.384 116.662 373.903 119.675C373.903 119.675 374.285 115.054 372.729 113.255L370.704 114.673C370.704 114.673 372.754 118.31 371.506 120.809C371.506 120.809 371.343 115.43 370.263 115.023C370.263 115.023 368.49 116.423 368.218 116.999C368.218 116.999 369.624 119.657 368.752 121.035C368.752 121.035 368.218 117.451 367.762 117.433C367.762 117.433 365.994 119.808 365.811 121.421C365.899 119.917 366.425 118.46 367.336 117.194C366.316 117.367 365.374 117.803 364.627 118.448C364.627 118.448 364.904 116.769 367.772 116.622C367.772 116.622 369.233 114.819 369.624 114.708C369.624 114.708 366.771 114.496 365.043 115.182C365.043 115.182 366.563 113.601 370.144 114.318L372.125 112.856C372.125 112.856 368.366 112.413 366.776 112.905C366.776 112.905 368.609 111.505 372.665 112.524L374.844 111.359C374.844 111.359 371.64 110.743 369.733 110.964C369.733 110.964 371.749 109.994 375.483 111.044L377.043 110.419C377.043 110.419 374.696 110.007 374.007 109.941C373.319 109.874 373.284 109.706 373.284 109.706C374.771 109.485 376.297 109.638 377.692 110.149C377.692 110.149 381.04 109.063 380.981 108.877Z" fill="#274786cc"/>
<path opacity="0.1" d="M266.646 98.3898C266.646 98.3898 270.98 81.956 257.587 81.8984C257.587 81.8984 255.364 81.1541 253.962 82.8555C253.962 82.8555 254.918 83.0371 254.269 84.6588C254.045 85.2322 253.895 85.8269 253.823 86.4311C253.727 87.2547 253.934 88.0838 254.413 88.7927V88.7927C254.413 88.7927 255.666 93.7995 263.823 96.9365C263.823 96.9365 265.428 98.567 265.913 98.5847L265.121 95.5762C265.121 95.5762 262.674 96.1832 260.94 95.1331C260.94 95.1331 265.017 95.6693 265.021 95.1331C265.021 95.0224 264.526 93.5558 264.526 93.5558C264.526 93.5558 260.272 94.5926 257.647 92.9045C257.647 92.9045 262.406 94.1274 264.343 92.9975L263.451 90.8176C263.451 90.8176 258.994 92.1158 255.943 90.2947C255.943 90.2947 260.97 91.4201 263.219 90.3568L262.005 88.3275C262.005 88.3275 257.647 89.5149 255.106 87.9863C255.106 87.9863 261.049 88.7573 261.693 87.88C261.693 87.88 260.455 86.0766 259.866 85.7399C259.866 85.7399 256.716 86.5286 255.329 85.5228C255.329 85.5228 259.365 85.6601 259.459 85.2791C259.459 85.2791 257.147 83.3163 255.383 82.8732C257.026 83.2079 258.544 83.9195 259.786 84.9379C259.768 84.0093 259.448 83.1056 258.865 82.3371C258.865 82.3371 260.668 82.8688 260.351 85.4386C260.351 85.4386 262.084 87.0337 262.139 87.397C262.139 87.397 262.857 84.9202 262.397 83.2764C262.397 83.2764 263.882 84.8892 262.481 87.9243L263.749 89.9403C263.749 89.9403 264.898 86.7058 264.605 85.2171C264.605 85.2171 265.839 87.0691 264.021 90.472L264.937 92.5943C264.937 92.5943 266.161 89.8738 266.24 88.1635C266.24 88.1635 266.968 90.1042 265.17 93.2191L265.596 94.6989C265.596 94.6989 266.448 92.7006 266.636 92.1069C266.824 91.5132 267.017 91.5088 267.017 91.5088C267.01 92.8567 266.583 94.1762 265.784 95.3192C265.784 95.3192 266.433 98.4119 266.646 98.3898Z" fill="#274786cc"/>
<path opacity="0.1" d="M225.43 103.99C225.43 103.99 210.314 93.8748 204.91 104.832C204.91 104.832 203.261 106.361 204.445 108.191C204.445 108.191 205.009 107.477 206.426 108.66C206.928 109.078 207.483 109.441 208.08 109.741C208.889 110.144 209.823 110.3 210.74 110.184V110.184C210.74 110.184 216.366 111.155 222.844 105.701C222.844 105.701 225.157 105.036 225.375 104.646L221.963 104.11C221.963 104.11 221.606 106.356 219.848 107.362C219.848 107.362 222.022 104.234 221.457 104.008C221.344 103.959 219.64 103.786 219.64 103.786C219.64 103.786 219.006 107.694 216.232 109.17C216.232 109.17 219.387 105.754 218.996 103.716L216.406 103.591C216.406 103.591 215.965 107.752 212.874 109.542C212.874 109.542 216.029 105.869 215.846 103.6L213.28 103.786C213.28 103.786 212.76 107.832 210.18 109.303C210.18 109.303 213.345 104.73 212.696 103.862C212.696 103.862 210.353 104.159 209.774 104.504C209.774 104.504 209.323 107.402 207.738 108.137C207.738 108.137 209.497 104.881 209.14 104.655C209.14 104.655 206.203 105.767 205.049 107.034C206.047 105.821 207.382 104.862 208.922 104.252C207.964 103.895 206.911 103.797 205.891 103.968C205.891 103.968 207.149 102.701 209.635 103.99C209.635 103.99 211.963 103.206 212.359 103.303C212.359 103.303 210.106 101.722 208.239 101.447C208.239 101.447 210.487 100.871 213.038 103.219L215.608 102.984C215.608 102.984 212.75 100.769 211.111 100.397C211.111 100.397 213.503 100.127 216.262 102.971L218.798 103.073C218.798 103.073 216.505 100.982 214.776 100.228C214.776 100.228 217.049 100.406 219.526 103.122L221.215 103.365C221.215 103.365 219.506 101.868 218.971 101.478C218.436 101.088 218.511 100.924 218.511 100.924C219.888 101.47 221.07 102.347 221.923 103.459C221.923 103.459 225.365 104.172 225.43 103.99Z" fill="#274786cc"/>
<path opacity="0.1" d="M275.754 10.0091C275.754 10.0091 260.638 -0.110781 255.235 10.8509C255.235 10.8509 253.586 12.3796 254.769 14.2095C254.769 14.2095 255.334 13.4961 256.751 14.6791C257.255 15.0946 257.812 15.4559 258.41 15.7558C259.218 16.1591 260.152 16.3147 261.069 16.1989V16.1989C261.069 16.1989 266.696 17.1692 273.174 11.7105C273.174 11.7105 275.487 11.0503 275.7 10.656L272.287 10.1287C272.287 10.1287 271.936 12.3751 270.173 13.3809C270.173 13.3809 272.352 10.2528 271.787 10.0268C271.673 9.97809 269.969 9.80529 269.969 9.80529C269.969 9.80529 269.316 13.7221 266.542 15.1887C266.542 15.1887 269.692 11.7726 269.306 9.7344L266.715 9.61033C266.715 9.61033 266.27 13.7708 263.184 15.5564C263.184 15.5564 266.339 11.8833 266.156 9.61477L263.595 9.80086C263.595 9.80086 263.07 13.8506 260.49 15.3216C260.49 15.3216 263.66 10.749 263.011 9.88061C263.011 9.88061 260.668 10.1775 260.089 10.5231C260.089 10.5231 259.638 13.4208 258.053 14.1563C258.053 14.1563 259.811 10.8997 259.455 10.6693C259.455 10.6693 256.518 11.7858 255.364 13.053C256.361 11.8384 257.696 10.879 259.237 10.2705C258.278 9.91165 257.222 9.81304 256.201 9.98695C256.201 9.98695 257.464 8.71975 259.95 10.0091C259.95 10.0091 262.278 9.22043 262.674 9.32233C262.674 9.32233 260.421 7.74055 258.553 7.46141C258.553 7.46141 260.797 6.88984 263.348 9.23372L265.918 8.99889C265.918 8.99889 263.065 6.7835 261.421 6.40688C261.421 6.40688 263.813 6.14104 266.577 8.98559L269.113 9.08307C269.113 9.08307 266.82 6.99175 265.086 6.24295C265.086 6.24295 267.364 6.42018 269.841 9.13624L271.525 9.37993C271.525 9.37993 269.811 7.90006 269.276 7.51901C268.741 7.13796 268.815 6.96959 268.815 6.96959C270.194 7.51484 271.375 8.39235 272.228 9.504C272.228 9.504 275.67 10.1775 275.754 10.0091Z" fill="#274786cc"/>
<path opacity="0.1" d="M333.513 22.8273C333.513 22.8273 327.471 6.82781 316.074 13.1151C316.074 13.1151 313.747 13.5582 313.563 15.645C313.563 15.645 314.48 15.3438 314.886 17.0275C315.037 17.6264 315.264 18.2077 315.564 18.7599C315.974 19.503 316.641 20.1077 317.466 20.4835V20.4835C317.466 20.4835 321.488 24.1388 330.284 22.9292C330.284 22.9292 332.607 23.5584 333.033 23.3413L330.556 21.1658C330.556 21.1658 328.843 22.8362 326.753 22.7697C326.753 22.7697 330.532 21.2987 330.22 20.8246C330.155 20.7316 328.862 19.7258 328.862 19.7258C328.862 19.7258 325.861 22.6191 322.642 22.4286C322.642 22.4286 327.401 21.2145 328.372 19.327L326.322 17.9136C326.322 17.9136 323.32 21.1126 319.64 21.0151C319.64 21.0151 324.593 19.5929 325.846 17.6256L323.618 16.478C323.618 16.478 320.646 19.5486 317.565 19.4511C317.565 19.4511 323.073 17.2933 323.088 16.2476C323.088 16.2476 320.973 15.3039 320.274 15.295C320.274 15.295 318.066 17.4528 316.312 17.2579C316.312 17.2579 319.819 15.4634 319.67 15.0956C319.67 15.0956 316.55 14.5241 314.792 14.9849C316.382 14.4895 318.089 14.375 319.744 14.6526C319.179 13.8723 318.372 13.2564 317.422 12.8802C317.422 12.8802 319.264 12.477 320.497 14.7988C320.497 14.7988 322.914 15.3349 323.172 15.614C323.172 15.614 322.32 13.1727 320.958 11.9941C320.958 11.9941 323.172 12.6631 323.776 15.902L326.044 17.0097C326.044 17.0097 325.108 13.7265 323.979 12.579C323.979 12.579 326.124 13.5714 326.589 17.3155L328.62 18.6846C328.62 18.6846 328.055 15.7957 327.104 14.2981C327.104 14.2981 328.867 15.6007 329.184 19.0966L330.418 20.1511C330.418 20.1511 329.962 18.051 329.774 17.4572C329.586 16.8635 329.739 16.8236 329.739 16.8236C330.526 17.973 330.943 19.2949 330.943 20.643C330.943 20.643 333.34 22.9425 333.513 22.8273Z" fill="#274786cc"/>
<path opacity="0.1" d="M294.079 23.616C294.079 23.616 275.308 21.7462 276.859 33.6606C276.859 33.6606 276.299 35.7253 278.344 36.7621C278.344 36.7621 278.429 35.876 280.326 36.2747C280.996 36.4038 281.68 36.4647 282.366 36.4564C283.292 36.4414 284.188 36.1568 284.917 35.6456V35.6456C284.917 35.6456 290.32 33.9309 292.841 26.2878C292.841 26.2878 294.456 24.6705 294.421 24.2319L291.177 25.3041C291.177 25.3041 292.168 27.3999 291.177 29.0659C291.177 29.0659 291.281 25.3839 290.682 25.4415C290.558 25.4415 288.993 26.0795 288.993 26.0795C288.993 26.0795 290.657 29.7349 289.102 32.2826C289.102 32.2826 289.884 27.905 288.394 26.3276L286.091 27.391C286.091 27.391 288.072 31.1793 286.412 34.1214C286.412 34.1214 287.056 29.5222 285.605 27.6569L283.5 28.9861C283.5 28.9861 285.343 32.7124 283.951 35.1537C283.951 35.1537 284.095 29.7748 283.04 29.3184C283.04 29.3184 281.187 30.6476 280.885 31.1971C280.885 31.1971 282.138 33.8998 281.192 35.2512C281.192 35.2512 280.86 31.649 280.425 31.6136C280.425 31.6136 278.523 33.9043 278.245 35.5215C278.417 34.0221 279.025 32.5892 280.009 31.3654C278.981 31.4925 278.017 31.8852 277.235 32.4953C277.235 32.4953 277.602 30.8337 280.474 30.816C280.474 30.816 282.034 29.0836 282.455 28.9905C282.455 28.9905 279.617 28.6494 277.849 29.2564C277.849 29.2564 279.459 27.7411 282.995 28.6228L285.08 27.2537C285.08 27.2537 281.311 26.5713 279.716 27.0144C279.716 27.0144 281.628 25.6852 285.62 26.9036L287.864 25.8358C287.864 25.8358 284.699 25.0737 282.782 25.2111C282.782 25.2111 284.847 24.3249 288.517 25.5523L290.112 24.9984C290.112 24.9984 287.789 24.48 287.106 24.3825C286.422 24.2851 286.398 24.1167 286.398 24.1167C287.895 23.963 289.41 24.1839 290.776 24.7547C290.776 24.7547 294.114 23.8021 294.079 23.616Z" fill="#274786cc"/>
<path opacity="0.1" d="M458.313 153.956C458.313 153.956 439.552 152.086 441.102 163.987C441.102 163.987 440.542 166.052 442.588 167.089C442.588 167.089 442.672 166.203 444.569 166.597C445.239 166.73 445.924 166.791 446.61 166.779C447.536 166.766 448.432 166.481 449.16 165.968V165.968C449.16 165.968 454.564 164.253 457.06 156.615C457.06 156.615 458.675 154.993 458.64 154.559L455.396 155.626C455.396 155.626 456.386 157.727 455.396 159.393C455.396 159.393 455.5 155.706 454.901 155.768C454.777 155.768 453.212 156.402 453.212 156.402C453.212 156.402 454.876 160.057 453.321 162.605C453.321 162.605 454.103 158.232 452.612 156.65L450.309 157.718C450.309 157.718 452.29 161.506 450.636 164.448C450.636 164.448 451.275 159.849 449.824 157.979L447.719 159.308C447.719 159.308 449.561 163.035 448.17 165.472C448.17 165.472 448.313 160.093 447.258 159.641C447.258 159.641 445.411 160.97 445.104 161.519C445.104 161.519 446.362 164.222 445.411 165.574C445.411 165.574 445.079 161.971 444.643 161.936C444.643 161.936 442.741 164.227 442.464 165.844C442.636 164.344 443.244 162.912 444.227 161.688C443.199 161.813 442.234 162.206 441.454 162.818C441.454 162.818 441.82 161.152 444.693 161.134C444.693 161.134 446.258 159.401 446.674 159.313C446.674 159.313 443.836 158.967 442.068 159.574C442.068 159.574 443.677 158.063 447.219 158.945L449.299 157.576C449.299 157.576 445.574 156.947 443.955 157.381C443.955 157.381 445.867 156.052 449.859 157.266L452.102 156.202C452.102 156.202 448.937 155.44 447.021 155.578C447.021 155.578 449.086 154.692 452.756 155.919L454.351 155.361C454.351 155.361 452.028 154.842 451.344 154.749C450.661 154.656 450.636 154.483 450.636 154.483C452.133 154.327 453.649 154.546 455.014 155.117C455.014 155.117 458.363 154.147 458.313 153.956Z" fill="#274786cc"/>
<path opacity="0.1" d="M486.994 169.632C486.994 169.632 468.233 167.767 469.783 179.663C469.783 179.663 469.229 181.728 471.269 182.765C471.269 182.765 471.353 181.879 473.25 182.278C473.919 182.408 474.602 182.467 475.286 182.455C476.208 182.438 477.099 182.155 477.827 181.648V181.648C477.827 181.648 483.225 179.934 485.721 172.291C485.721 172.291 487.341 170.673 487.301 170.235L484.057 171.303C484.057 171.303 485.048 173.403 484.057 175.069C484.057 175.069 484.161 171.387 483.562 171.444C483.438 171.444 481.873 172.078 481.873 172.078C481.873 172.078 483.537 175.733 481.982 178.281C481.982 178.281 482.764 173.908 481.274 172.33L478.971 173.394C478.971 173.394 480.952 177.182 479.298 180.124C479.298 180.124 479.936 175.525 478.485 173.66L476.38 174.989C476.38 174.989 478.223 178.715 476.836 181.157C476.836 181.157 476.975 175.773 475.92 175.321C475.92 175.321 474.072 176.65 473.765 177.2C473.765 177.2 475.023 179.903 474.072 181.254C474.072 181.254 473.741 177.652 473.305 177.616C473.305 177.616 471.403 179.907 471.131 181.524C471.302 180.026 471.908 178.593 472.889 177.368C471.861 177.495 470.897 177.888 470.115 178.498C470.115 178.498 470.487 176.832 473.359 176.819C473.359 176.819 474.919 175.086 475.34 174.993C475.34 174.993 472.502 174.652 470.734 175.259C470.734 175.259 472.344 173.744 475.885 174.626L477.965 173.257C477.965 173.257 474.241 172.627 472.621 173.062C472.621 173.062 474.533 171.732 478.525 172.951L480.769 171.883C480.769 171.883 477.604 171.121 475.687 171.258C475.687 171.258 477.752 170.372 481.422 171.599L483.017 171.046C483.017 171.046 480.694 170.527 480.016 170.43C479.337 170.332 479.303 170.164 479.303 170.164C480.8 170.01 482.315 170.231 483.681 170.802C483.681 170.802 487.044 169.823 486.994 169.632Z" fill="#274786cc"/>
<path opacity="0.1" d="M423.317 37.5907C423.317 37.5907 408.201 27.4752 402.797 38.4325C402.797 38.4325 401.148 39.9611 402.332 41.791C402.332 41.791 402.897 41.0777 404.313 42.2607C404.815 42.6783 405.37 43.0412 405.967 43.3418C406.776 43.7445 407.71 43.9 408.627 43.7849V43.7849C408.627 43.7849 414.253 44.7552 420.736 39.3009C420.736 39.3009 423.044 38.6363 423.262 38.2464L419.86 37.697C419.86 37.697 419.503 39.9434 417.745 40.9492C417.745 40.9492 419.919 37.8211 419.354 37.5951C419.24 37.5464 417.542 37.3736 417.542 37.3736C417.542 37.3736 416.903 41.2815 414.129 42.7569C414.129 42.7569 417.284 39.3408 416.893 37.3027L414.303 37.1786C414.303 37.1786 413.862 41.3391 410.771 43.1291C410.771 43.1291 413.931 39.456 413.743 37.1875L411.177 37.3736C411.177 37.3736 410.682 41.4189 408.077 42.8899C408.077 42.8899 411.247 38.3173 410.593 37.4489C410.593 37.4489 408.25 37.7457 407.671 38.0913C407.671 38.0913 407.225 40.9891 405.64 41.7246C405.64 41.7246 407.394 38.468 407.037 38.242C407.037 38.242 404.1 39.3541 402.946 40.6213C403.944 39.408 405.279 38.4489 406.819 37.8388C405.861 37.4826 404.808 37.384 403.788 37.5552C403.788 37.5552 405.051 36.288 407.537 37.5774C407.537 37.5774 409.86 36.7931 410.256 36.8906C410.256 36.8906 408.003 35.3088 406.136 35.0341C406.136 35.0341 408.384 34.4581 410.935 36.8064L413.505 36.5716C413.505 36.5716 410.652 34.3562 409.008 33.984C409.008 33.984 411.4 33.7137 414.159 36.5583L416.7 36.6602C416.7 36.6602 414.402 34.5689 412.673 33.8156C412.673 33.8156 414.951 33.9929 417.423 36.7089L419.112 36.9526C419.112 36.9526 417.403 35.455 416.868 35.0651C416.333 34.6752 416.412 34.5467 416.412 34.5467C417.788 35.0935 418.968 35.9708 419.82 37.0811C419.82 37.0811 423.252 37.7723 423.317 37.5907Z" fill="#274786cc"/>
<path opacity="0.1" d="M434.995 110.619C434.995 110.619 429.785 94.3888 418.067 100.215C418.067 100.215 415.719 100.539 415.427 102.639C415.427 102.639 416.358 102.377 416.68 104.074C416.799 104.684 416.999 105.279 417.274 105.847C417.641 106.61 418.278 107.245 419.087 107.654V107.654C419.087 107.654 422.92 111.465 431.766 110.614C431.766 110.614 434.054 111.332 434.49 111.137L432.147 108.86C432.147 108.86 430.349 110.464 428.269 110.313C428.269 110.313 432.113 108.984 431.815 108.51C431.756 108.412 430.518 107.353 430.518 107.353C430.518 107.353 427.378 110.127 424.168 109.803C424.168 109.803 428.987 108.784 430.047 106.95L428.066 105.452C428.066 105.452 424.906 108.527 421.236 108.288C421.236 108.288 426.229 107.061 427.606 105.151L425.436 103.915C425.436 103.915 422.291 106.861 419.24 106.64C419.24 106.64 424.852 104.704 424.921 103.662C424.921 103.662 422.851 102.634 422.153 102.599C422.153 102.599 419.84 104.664 418.081 104.398C418.081 104.398 421.677 102.745 421.548 102.373C421.548 102.373 418.458 101.677 416.68 102.063C418.29 101.636 419.997 101.591 421.633 101.934C421.109 101.133 420.334 100.486 419.404 100.073C419.404 100.073 421.266 99.7411 422.375 102.112C422.375 102.112 424.758 102.741 425.005 103.033C425.005 103.033 424.277 100.556 422.975 99.3291C422.975 99.3291 425.154 100.082 425.595 103.343L427.804 104.544C427.804 104.544 427.031 101.221 425.961 100.051C425.961 100.051 428.051 101.128 428.334 104.885L430.315 106.334C430.315 106.334 429.894 103.428 429.022 101.903C429.022 101.903 430.721 103.277 430.859 106.777L432.038 107.885C432.038 107.885 431.692 105.767 431.543 105.164C431.394 104.562 431.543 104.478 431.543 104.478C432.276 105.656 432.627 106.994 432.558 108.341C432.558 108.341 434.817 110.725 434.995 110.619Z" fill="#274786cc"/>
<path opacity="0.1" d="M318.893 147.19C318.893 147.19 308.774 132.932 299.379 141.466C299.379 141.466 297.229 142.352 297.606 144.456C297.606 144.456 298.423 143.969 299.265 145.52C299.567 146.069 299.943 146.584 300.384 147.053C300.975 147.693 301.784 148.141 302.687 148.329V148.329C302.687 148.329 307.566 151.023 315.787 147.975C315.787 147.975 318.209 148.09 318.566 147.793L315.594 146.198C315.594 146.198 314.371 148.192 312.325 148.568C312.325 148.568 315.604 146.353 315.163 145.945C315.079 145.865 313.554 145.165 313.554 145.165C313.554 145.165 311.409 148.613 308.229 149.113C308.229 149.113 312.533 146.92 312.979 144.891L310.607 143.956C310.607 143.956 308.541 147.7 304.946 148.387C304.946 148.387 309.354 145.954 310.072 143.774L307.595 143.136C307.595 143.136 305.505 146.756 302.509 147.31C302.509 147.31 307.283 144.04 307.021 143.021C307.021 143.021 304.713 142.556 304.049 142.697C304.049 142.697 302.479 145.263 300.706 145.449C300.706 145.449 303.638 142.959 303.396 142.631C303.396 142.631 300.211 142.742 298.626 143.561C300.04 142.742 301.669 142.269 303.351 142.188C302.598 141.55 301.653 141.124 300.632 140.961C300.632 140.961 302.311 140.176 304.099 142.17C304.099 142.17 306.575 142.17 306.917 142.392C306.917 142.392 305.431 140.176 303.802 139.348C303.802 139.348 306.129 139.525 307.576 142.542L310.077 143.136C310.077 143.136 308.289 140.145 306.897 139.29C306.897 139.29 309.24 139.795 310.691 143.335L313.029 144.222C313.029 144.222 311.711 141.541 310.389 140.287C310.389 140.287 312.449 141.173 313.682 144.501L315.168 145.267C315.168 145.267 314.178 143.322 313.826 142.786C313.474 142.25 313.613 142.126 313.613 142.126C314.685 143.073 315.441 144.268 315.797 145.577C315.797 145.577 318.759 147.341 318.893 147.19Z" fill="#274786cc"/>
<path d="M385.393 74.3395C385.393 74.3395 375.77 59.811 366.078 68.0788C366.078 68.0788 363.898 68.9207 364.205 71.0209C364.205 71.0209 365.033 70.5512 365.825 72.1241C366.108 72.6833 366.466 73.2099 366.89 73.6926C367.459 74.346 368.252 74.8133 369.148 75.0219V75.0219C369.148 75.0219 373.928 77.8487 382.253 75.0219C382.253 75.0219 384.67 75.2035 385.037 74.9155L382.129 73.2407C382.129 73.2407 380.842 75.1947 378.781 75.5181C378.781 75.5181 382.134 73.378 381.713 72.9748C381.624 72.8907 380.129 72.1463 380.129 72.1463C380.129 72.1463 377.865 75.5358 374.68 75.9479C374.68 75.9479 379.059 73.8743 379.569 71.8627L377.231 70.8791C377.231 70.8791 375.037 74.5699 371.417 75.1592C371.417 75.1592 375.909 72.8508 376.701 70.693L374.255 69.9841C374.255 69.9841 372.036 73.5287 369.024 74.0161C369.024 74.0161 373.908 70.8791 373.68 69.8556C373.68 69.8556 371.392 69.3239 370.708 69.4479C370.708 69.4479 369.049 71.9691 367.271 72.1064C367.271 72.1064 370.287 69.7049 370.06 69.3682C370.06 69.3682 366.87 69.3903 365.26 70.1657C366.702 69.3877 368.346 68.96 370.03 68.9251C369.298 68.2665 368.366 67.8137 367.35 67.6225C367.35 67.6225 369.059 66.8825 370.817 68.9251C370.817 68.9251 373.294 69.0004 373.626 69.2264C373.626 69.2264 372.224 67.011 370.619 66.0983C370.619 66.0983 372.937 66.3375 374.279 69.3948L376.756 70.0594C376.756 70.0594 375.077 67.0199 373.71 66.1249C373.71 66.1249 376.038 66.6964 377.365 70.2721L379.668 71.2336C379.668 71.2336 378.445 68.5175 377.192 67.2459C377.192 67.2459 379.217 68.1896 380.341 71.5481L381.793 72.3545C381.793 72.3545 380.862 70.3828 380.535 69.8379C380.208 69.2929 380.346 69.1732 380.346 69.1732C381.385 70.1494 382.1 71.3642 382.412 72.6824C382.412 72.6824 385.25 74.4857 385.393 74.3395Z" fill="#274786cc"/>
<path d="M324.509 104.89C324.509 104.89 325.004 88.0084 311.894 90.3878C311.894 90.3878 309.547 90.0643 308.556 91.9873C308.556 91.9873 309.547 91.9873 309.269 93.6931C309.179 94.3014 309.169 94.9171 309.24 95.5275C309.329 96.3553 309.721 97.1339 310.354 97.7429C310.354 97.7429 312.716 102.413 321.438 103.999C321.438 103.999 323.375 105.306 323.86 105.235L322.374 102.435C322.374 102.435 320.121 103.472 318.184 102.767C318.184 102.767 322.295 102.55 322.181 102.01C322.181 101.899 321.329 100.552 321.329 100.552C321.329 100.552 317.397 102.346 314.45 101.168C314.45 101.168 319.403 101.5 321.022 100.042L319.64 98.0796C319.64 98.0796 315.589 100.153 312.172 98.9303C312.172 98.9303 317.347 99.1164 319.309 97.6675L317.659 95.8952C317.659 95.8952 313.662 97.8536 310.829 96.8168C310.829 96.8168 316.832 96.4934 317.268 95.5142C317.268 95.5142 315.644 93.9767 314.99 93.7419C314.99 93.7419 312.087 95.0711 310.503 94.3533C310.503 94.3533 314.465 93.7596 314.49 93.3652C314.49 93.3652 311.78 91.8632 309.953 91.7524C311.638 91.7794 313.286 92.201 314.732 92.9753C314.507 92.0697 313.99 91.2427 313.246 90.596C313.246 90.596 315.133 90.7865 315.391 93.3431C315.391 93.3431 317.456 94.5926 317.59 94.9382C317.59 94.9382 317.734 92.3816 316.907 90.8574C316.907 90.8574 318.729 92.1645 318.046 95.3901L319.744 97.1358C319.744 97.1358 320.131 93.7596 319.512 92.355C319.512 92.355 321.136 93.9457 320.136 97.6055L321.508 99.5152C321.508 99.5152 322.092 96.6307 321.78 94.9337C321.78 94.9337 322.929 96.706 321.879 100.078L322.632 101.451C322.632 101.451 323.013 99.3379 323.063 98.7221C323.112 98.1062 323.301 98.0663 323.301 98.0663C323.599 99.388 323.48 100.758 322.959 102.023C322.959 102.023 324.291 104.947 324.509 104.89Z" fill="#274786cc"/>
<path opacity="0.1" d="M346.182 319.392C353.549 319.392 359.52 318.49 359.52 317.376C359.52 316.263 353.549 315.36 346.182 315.36C338.816 315.36 332.845 316.263 332.845 317.376C332.845 318.49 338.816 319.392 346.182 319.392Z" fill="#274786cc"/>
<path opacity="0.1" d="M297.561 350C304.927 350 310.899 349.097 310.899 347.984C310.899 346.871 304.927 345.968 297.561 345.968C290.195 345.968 284.223 346.871 284.223 347.984C284.223 349.097 290.195 350 297.561 350Z" fill="#274786cc"/>
<path opacity="0.1" d="M46.13 334.319C53.4962 334.319 59.4678 333.417 59.4678 332.303C59.4678 331.19 53.4962 330.287 46.13 330.287C38.7638 330.287 32.7922 331.19 32.7922 332.303C32.7922 333.417 38.7638 334.319 46.13 334.319Z" fill="#274786cc"/>
<path opacity="0.1" d="M398.726 347.984C406.093 347.984 412.064 347.081 412.064 345.968C412.064 344.855 406.093 343.952 398.726 343.952C391.36 343.952 385.389 344.855 385.389 345.968C385.389 347.081 391.36 347.984 398.726 347.984Z" fill="#274786cc"/>
<path d="M412.613 323.402C423.612 323.402 432.528 322.053 432.528 320.389C432.528 318.725 423.612 317.376 412.613 317.376C401.614 317.376 392.698 318.725 392.698 320.389C392.698 322.053 401.614 323.402 412.613 323.402Z" fill="#274786cc"/>
<path d="M420.87 315.458C421.779 314.797 422.441 313.903 422.767 312.897C423.014 311.878 422.529 310.659 421.444 310.287C420.226 309.87 418.923 310.624 417.933 311.386C416.942 312.148 415.818 313.021 414.525 312.861C415.189 312.322 415.685 311.638 415.967 310.877C416.248 310.115 416.304 309.301 416.13 308.515C416.074 308.189 415.92 307.882 415.684 307.629C415.006 306.982 413.782 307.261 412.97 307.77C410.395 309.392 409.677 312.52 409.662 315.338C409.404 314.323 409.622 313.264 409.617 312.237C409.612 311.209 409.29 310.021 408.305 309.481C407.7 309.179 407.016 309.026 406.324 309.037C405.165 309.002 403.872 309.104 403.085 309.862C402.094 310.801 402.356 312.383 403.208 313.406C404.06 314.43 405.363 315.09 406.561 315.808C407.521 316.32 408.34 317.018 408.958 317.85C409.029 317.966 409.087 318.088 409.132 318.214H416.393C418.018 317.481 419.524 316.554 420.87 315.458V315.458Z" fill="#274786cc"/>
<path d="M37.1753 322.932C37.1753 322.932 44.7778 322.724 47.0808 321.262C49.3838 319.8 58.7842 318.059 59.3537 320.402C59.9233 322.746 70.7847 332.051 62.1966 332.113C53.6085 332.175 42.242 330.917 39.9538 329.667C37.6656 328.418 37.1753 322.932 37.1753 322.932Z" fill="#A8A8A8"/>
<path opacity="0.2" d="M62.3402 331.298C53.7522 331.36 42.3856 330.101 40.0974 328.852C38.3541 327.904 37.6607 324.496 37.4279 322.924H37.1753C37.1753 322.924 37.6706 328.413 39.9439 329.658C42.2172 330.903 53.5986 332.166 62.1867 332.104C64.6631 332.104 65.5199 331.298 65.4753 330.128C65.1286 330.841 64.1827 331.284 62.3402 331.298Z" fill="black"/>
</g>
<defs>
<linearGradient id="paint0_linear" x1="110.442" y1="192.039" x2="265.032" y2="192.039" gradientUnits="userSpaceOnUse">
<stop stop-color="#808080" stop-opacity="0.25"/>
<stop offset="0.54" stop-color="#808080" stop-opacity="0.12"/>
<stop offset="1" stop-color="#808080" stop-opacity="0.1"/>
</linearGradient>
<clipPath id="clip0">
<rect width="500" height="350" fill="white"/>
</clipPath>
</defs>
</svg>
