<svg width="395" height="395" viewBox="0 0 395 395" fill="none" xmlns="http://www.w3.org/2000/svg">
<path d="M332.772 94.1597L389.499 57.5759C390.848 56.6768 392.007 55.5209 392.91 54.1739C393.812 52.827 394.44 51.3155 394.758 49.7258C395.076 48.1361 395.078 46.4993 394.763 44.9089C394.449 43.3184 393.824 41.8056 392.925 40.4566L386.082 30.1882C385.183 28.8391 384.027 27.6803 382.68 26.778C381.333 25.8757 379.821 25.2475 378.232 24.9294C376.642 24.6114 375.005 24.6095 373.415 24.9241C371.824 25.2387 370.311 25.8635 368.962 26.7628L284.053 81.5382C245.664 74.7645 209.242 74.0625 197.5 74.0625C169.379 74.0625 0 77.5727 0 160.584V284.199C0 307.552 21.2158 328.699 55.5469 344.267V265.653C55.5469 260.742 57.4976 256.033 60.97 252.56C64.4423 249.088 69.1519 247.137 74.0625 247.137C78.9731 247.137 83.6827 249.088 87.155 252.56C90.6274 256.033 92.5781 260.742 92.5781 265.653V357.406C118.076 364.434 147.408 369.024 178.984 370.312V290.379C178.984 285.468 180.935 280.759 184.407 277.286C187.88 273.814 192.589 271.863 197.5 271.863C202.411 271.863 207.12 273.814 210.593 277.286C214.065 280.759 216.016 285.468 216.016 290.379V370.312C247.592 369.024 276.924 364.434 302.422 357.406V265.653C302.422 260.742 304.373 256.033 307.845 252.56C311.317 249.088 316.027 247.137 320.938 247.137C325.848 247.137 330.558 249.088 334.03 252.56C337.502 256.033 339.453 260.742 339.453 265.653V344.267C373.784 328.699 395 307.552 395 284.199V160.584C395 127.164 367.412 106.766 332.772 94.1597V94.1597ZM197.5 210.029C108.872 210.029 37.0312 187.895 37.0312 160.584C37.0312 133.274 108.872 111.148 197.5 111.148C210.731 111.148 223.522 111.696 235.827 112.621L179.656 148.881C178.307 149.781 177.149 150.937 176.247 152.284C175.346 153.632 174.718 155.143 174.401 156.733C174.084 158.323 174.083 159.959 174.398 161.549C174.713 163.139 175.338 164.652 176.238 166L183.081 176.269C183.98 177.618 185.136 178.777 186.483 179.679C187.83 180.581 189.341 181.209 190.931 181.527C192.521 181.846 194.158 181.847 195.748 181.533C197.338 181.218 198.851 180.593 200.2 179.694L291.729 120.66C331.808 129.609 357.969 144.144 357.969 160.584C357.969 187.895 286.12 210.029 197.5 210.029Z" fill="#3DB3C5"/>
</svg>
